<?xml version="1.0" encoding="UTF-8"?>
<svg version="1.1" xmlns="http://www.w3.org/2000/svg" width="1732" height="720" viewBox="0 0 1732 720">
<path d="M0 0 C571.56 0 1143.12 0 1732 0 C1732 237.6 1732 475.2 1732 720 C1160.44 720 588.88 720 0 720 C0 482.4 0 244.8 0 0 Z " fill="#1F2126" transform="translate(0,0)"/>
<path d="M0 0 C5.34656251 4.62436888 9.67408558 10.1440827 14.08203125 15.64453125 C15.93967086 18.00756704 15.93967086 18.00756704 18 20 C18.66 9.44 19.32 -1.12 20 -12 C36.5 -12 53 -12 70 -12 C70.44232704 17.999252 70.77102271 47.99836221 71 78 C71.00523619 78.68463192 71.01047237 79.36926384 71.01586723 80.07464218 C71.16075634 99.11071261 71.27296717 118.14667487 71.32823563 137.18322945 C71.35092735 144.90001041 71.38146953 152.61655173 71.43432617 160.33319092 C71.47984361 167.00016026 71.50686628 173.66691435 71.51191533 180.3340416 C71.51500429 183.77169587 71.52576926 187.20881859 71.55907822 190.64632416 C71.77026712 215.61720443 70.80868847 242.83945268 52.45703125 261.87890625 C48.35725953 265.41813685 43.91541998 267.78179698 39 270 C38.35675781 270.31582031 37.71351563 270.63164063 37.05078125 270.95703125 C24.68435459 276.40255101 9.36297215 275.2743483 -3.83984375 275.1953125 C-5.70170437 275.19157208 -7.56356699 275.18872999 -9.4254303 275.18673706 C-14.2734034 275.17918146 -19.12125242 275.15960457 -23.96917725 275.1373291 C-29.81397692 275.11305239 -35.65881859 275.10405117 -41.50365448 275.09242249 C-50.33585536 275.07317371 -59.16778519 275.03479533 -68 275 C-68 259.82 -68 244.64 -68 229 C-60.75313117 228.85464733 -53.5062713 228.71137565 -46.25927734 228.57275391 C-43.81036241 228.52535966 -41.36146761 228.47691012 -38.91259766 228.42724609 C-19.60099593 228.03671019 -0.32149293 228 19 228 C18.67 204.57 18.34 181.14 18 157 C15.03 160.96 12.06 164.92 9 169 C-2.99367531 182.34779994 -19.39345856 190.66764656 -37.32421875 192.30322266 C-40.6597668 192.43543633 -43.97453278 192.46739152 -47.3125 192.4375 C-48.48804443 192.43137695 -49.66358887 192.42525391 -50.87475586 192.41894531 C-60.14912065 192.25297829 -68.23753688 191.05839594 -77 188 C-77.92296875 187.69964844 -78.8459375 187.39929688 -79.796875 187.08984375 C-99.52928029 180.01191577 -111.48573267 165.15916086 -120.2734375 146.859375 C-123.54699727 139.69268853 -125.65813049 132.74507102 -127.125 125 C-127.29386719 124.14921875 -127.46273437 123.2984375 -127.63671875 122.421875 C-129.18884917 114.45345742 -130.15424338 106.68789597 -130.203125 98.57421875 C-130.21013931 97.79299652 -130.21715363 97.01177429 -130.22438049 96.20687866 C-130.24178795 93.70035988 -130.24823204 91.194077 -130.25 88.6875 C-130.25067474 87.83340546 -130.25134949 86.97931091 -130.25204468 86.09933472 C-130.21786907 58.93292143 -126.02473575 34.51203893 -108 13 C-107.08541016 11.78763672 -107.08541016 11.78763672 -106.15234375 10.55078125 C-81.36469125 -18.82551109 -29.9184218 -23.52807928 0 0 Z " fill="#F9F9F9" transform="translate(787,280)"/>
<path d="M0 0 C16.83 0 33.66 0 51 0 C53.96119267 7.1068624 56.81952067 14.01744318 59.2421875 21.28515625 C59.52726669 22.12795639 59.81234589 22.97075653 60.10606384 23.83909607 C60.71588679 25.64279616 61.32393869 27.44709589 61.93032837 29.25195312 C63.57021304 34.13086829 65.22522567 39.00465341 66.87890625 43.87890625 C67.2187706 44.88156525 67.55863495 45.88422424 67.90879822 46.91726685 C71.48809177 57.4641426 75.14109805 67.98489175 78.8125 78.5 C79.1247049 79.39549561 79.43690979 80.29099121 79.75857544 81.21362305 C82.82745513 90.01355036 85.91397146 98.80586568 89.09375 107.56640625 C89.32978439 108.21858124 89.56581879 108.87075623 89.80900574 109.54269409 C90.87396305 112.48392422 91.94575909 115.42219554 93.0324707 118.35546875 C95.03488346 123.85583942 96.59612317 129.15112929 97.5144043 134.93920898 C97.94208677 137.29129939 97.94208677 137.29129939 100 140 C101.46915333 137.28712451 102.34219775 134.89078713 102.91015625 131.86425781 C103.9792426 126.7840278 105.63781731 122.03420516 107.4375 117.171875 C107.78598495 116.21699188 108.13446991 115.26210876 108.49351501 114.27828979 C109.65599664 111.09982493 110.82748088 107.92477469 112 104.75 C112.82762056 102.49921018 113.65517421 100.24839575 114.48266602 97.99755859 C117.04677296 91.03568859 119.62618982 84.07955227 122.21042633 77.12513733 C123.0271384 74.92695699 123.84327844 72.72856482 124.65936279 70.53015137 C128.15719505 61.11015569 131.66821775 51.69518001 135.19311523 42.28527832 C136.35468233 39.18410836 137.51302514 36.08176352 138.66870117 32.97839355 C140.04253643 29.29042471 141.42415562 25.60546305 142.81164742 21.92261124 C143.32392213 20.55927161 143.83361944 19.19496029 144.34052849 17.82961655 C145.04005222 15.94703458 145.75015613 14.06839427 146.46069336 12.18994141 C146.85639023 11.13433014 147.2520871 10.07871887 147.65977478 8.99111938 C149.15901596 5.64510763 150.68825379 2.85442558 153 0 C155.34124756 -0.7215271 155.34124756 -0.7215271 157.95214844 -0.68115234 C159.42322052 -0.68047256 159.42322052 -0.68047256 160.92401123 -0.67977905 C161.97518127 -0.64881134 163.02635132 -0.61784363 164.109375 -0.5859375 C165.19132141 -0.57744781 166.27326782 -0.56895813 167.38800049 -0.56021118 C170.84301412 -0.52662952 174.29569211 -0.45133564 177.75 -0.375 C180.09241421 -0.34490682 182.434865 -0.3175299 184.77734375 -0.29296875 C190.51902579 -0.22682273 196.25934606 -0.12642549 202 0 C201.52710444 1.75332006 201.05278956 3.50625735 200.57788086 5.2590332 C200.31389999 6.23524124 200.04991913 7.21144928 199.77793884 8.21723938 C197.57554346 16.09541542 194.8055165 23.79562898 190.9609375 31.0234375 C189.80549734 33.40007458 188.94010449 35.82010326 188.0625 38.3125 C185.70258066 44.99586532 182.71654875 51.33802933 179.7109375 57.75 C177.63155875 62.24043754 175.70081148 66.7037813 174.0625 71.375 C172.19108483 76.6937589 169.84123784 81.71657579 167.4375 86.8125 C166.14409319 89.68048902 165.03557103 92.53136306 164 95.5 C162.15783402 100.7808758 159.8218351 105.7577096 157.4375 110.8125 C156.14409319 113.68048902 155.03557103 116.53136306 154 119.5 C152.15783402 124.7808758 149.8218351 129.7577096 147.4375 134.8125 C146.14409319 137.68048902 145.03557103 140.53136306 144 143.5 C142.5597684 147.62866393 140.86560487 151.54491767 139 155.5 C136.71423519 160.35223758 134.76419236 165.20829789 132.98828125 170.265625 C129.92692353 178.73578469 126.16112058 186.95743526 122.6015625 195.2265625 C120.85319082 199.31909546 119.17935088 203.44129461 117.5 207.5625 C114.98653802 213.72264922 112.28732813 219.76237237 109.44921875 225.78125 C107.91581311 229.18698113 106.58093776 232.63548251 105.25 236.125 C97.06563642 257.01565647 85.69538369 277.51482682 64.25494385 287.1224823 C55.43503228 290.55477554 46.83864234 291.42809088 37.453125 291.29296875 C35.74730255 291.28660149 35.74730255 291.28660149 34.00701904 291.28010559 C30.42109173 291.26348722 26.8357537 291.22586708 23.25 291.1875 C20.79948736 291.17243139 18.34896579 291.15874683 15.8984375 291.14648438 C9.93188918 291.11620757 3.96659401 291.05745294 -2 291 C-2 278.13 -2 265.26 -2 252 C11.39583739 250.88368022 11.39583739 250.88368022 16.5078125 250.82421875 C17.59707031 250.80037109 18.68632813 250.77652344 19.80859375 250.75195312 C22.02714487 250.70883641 24.24595906 250.67766703 26.46484375 250.65820312 C36.14195319 250.41139666 44.34337047 248.17581213 52 242 C60.3786318 231.08595056 64.87580502 216.88486639 70.00366211 204.27807617 C71 202 71 202 72 201 C72.78963018 193.28363604 71.48826502 187.18367748 68.5 180.125 C67.75992095 178.28405337 67.02035197 176.44290162 66.28125 174.6015625 C65.90097656 173.6724707 65.52070312 172.74337891 65.12890625 171.78613281 C63.34571303 167.38522428 61.67656677 162.94236003 60 158.5 C59.3365478 156.75627809 58.67248335 155.012789 58.0078125 153.26953125 C57.67813477 152.40408691 57.34845703 151.53864258 57.00878906 150.64697266 C55.98314644 147.95577776 54.95652497 145.26495795 53.9296875 142.57421875 C53.24476828 140.77865475 52.55987223 138.98308192 51.875 137.1875 C51.54274414 136.31706055 51.21048828 135.44662109 50.86816406 134.54980469 C49.33175675 130.51920988 47.80421489 126.48588126 46.3046875 122.44140625 C44.04996387 116.36004293 41.76711033 110.34090923 39.0546875 104.4453125 C37.33223354 100.4517711 35.86066185 96.36277319 34.3515625 92.28515625 C32.63546889 87.66028398 30.84710342 83.0742404 29 78.5 C26.78689497 73.01519395 24.66398844 67.503337 22.59936523 61.96044922 C20.18420746 55.47874375 17.74009003 49.00816187 15.28839111 42.54019165 C14.80502441 41.26487658 14.3219102 39.98946578 13.83905029 38.71395874 C11.52447141 32.60080744 9.20531324 26.49017242 6.8046875 20.41015625 C6.4842749 19.59788574 6.1638623 18.78561523 5.83374023 17.94873047 C5.26235345 16.50711118 4.68678008 15.06713928 4.10571289 13.62939453 C2.29562583 9.0675366 1.21413125 4.85652501 0 0 Z " fill="#FAFAFA" transform="translate(1370,268)"/>
<path d="M0 0 C15.85594008 13.10683663 21.85697718 36.54981817 24 56 C24.24439781 60.4754978 24.26473581 64.93393554 24.24291992 69.4152832 C24.24481827 70.67393188 24.24671661 71.93258057 24.24867249 73.22937012 C24.25170994 76.63148568 24.24595722 80.03335097 24.23571944 83.43543649 C24.2268458 87.01035643 24.22869803 90.58527331 24.2290802 94.16020203 C24.22814907 100.1454795 24.21953181 106.13070568 24.20581055 112.1159668 C24.18999726 119.03948978 24.18481594 125.96295711 24.1855461 132.88649684 C24.18622001 140.27465555 24.17929861 147.6627928 24.1700995 155.05094504 C24.16796659 157.17793404 24.16725817 159.30491959 24.16686058 161.43190956 C24.16567454 165.37690847 24.15598461 169.32186061 24.14526367 173.2668457 C24.14571686 174.44750107 24.14617004 175.62815643 24.14663696 176.84458923 C24.14237198 177.91115753 24.13810699 178.97772583 24.13371277 180.07661438 C24.13203692 181.00879949 24.13036108 181.94098459 24.12863445 182.90141773 C24 185 24 185 23 186 C21.53194708 186.09822744 20.0592254 186.1279837 18.58789062 186.12939453 C17.65021851 186.13254669 16.71254639 186.13569885 15.74645996 186.13894653 C14.72669067 186.1369223 13.70692139 186.13489807 12.65625 186.1328125 C11.09710876 186.13424759 11.09710876 186.13424759 9.50646973 186.13571167 C7.30395446 186.13639363 5.10143721 186.13453827 2.89892578 186.13037109 C-0.48539719 186.12502308 -3.86958744 186.13031559 -7.25390625 186.13671875 C-9.38802113 186.13605797 -11.52213592 186.13477681 -13.65625 186.1328125 C-14.67601929 186.13483673 -15.69578857 186.13686096 -16.74645996 186.13894653 C-18.15296814 186.13421829 -18.15296814 186.13421829 -19.58789062 186.12939453 C-20.41760376 186.12859894 -21.24731689 186.12780334 -22.10217285 186.12698364 C-24 186 -24 186 -25 185 C-25.0991749 183.5111413 -25.12908168 182.01760814 -25.13130188 180.52545166 C-25.13731415 179.07488625 -25.13731415 179.07488625 -25.14344788 177.59501648 C-25.1426548 175.98999016 -25.1426548 175.98999016 -25.1418457 174.35253906 C-25.14532013 173.23210709 -25.14879456 172.11167511 -25.15237427 170.95729065 C-25.15974959 168.51276399 -25.16508545 166.06823054 -25.16866493 163.62369537 C-25.17581557 159.74701996 -25.19147513 155.87047223 -25.21000671 151.99383545 C-25.26251761 140.96710131 -25.31081746 129.94043127 -25.32592773 118.91357422 C-25.33525601 112.17547908 -25.36548469 105.43774439 -25.40724754 98.69976044 C-25.4195149 96.13714746 -25.42468665 93.57448981 -25.42244911 91.01184845 C-25.14575761 72.57967474 -25.14575761 72.57967474 -30 55 C-30.32501495 54.18310699 -30.65002991 53.36621399 -30.9848938 52.52456665 C-34.48836664 43.82913126 -38.1438716 36.94288711 -47 33 C-54.02997115 30.33309137 -60.51446857 29.50483834 -68 29.5625 C-68.92039062 29.54251953 -69.84078125 29.52253906 -70.7890625 29.50195312 C-77.64380756 29.50678041 -82.82440844 31.12107428 -89 34 C-89.96292969 34.38542969 -90.92585937 34.77085937 -91.91796875 35.16796875 C-98.19517912 37.98785155 -102.78248105 41.79727394 -106 48 C-105.67 48.99 -105.34 49.98 -105 51 C-105.63671875 52.84765625 -105.63671875 52.84765625 -106.6875 55.0625 C-113.29168161 70.92749263 -113.59077792 86.97988913 -113.57421875 103.91015625 C-113.5866902 106.25859099 -113.6010316 108.60701647 -113.61714172 110.95542908 C-113.65483516 117.07538842 -113.67030275 123.19518651 -113.67993164 129.31524658 C-113.69983232 139.16848897 -113.75639121 149.02161087 -113.80869484 158.87472343 C-113.82406012 162.31216883 -113.83123047 165.74955328 -113.83683777 169.18702698 C-113.84384703 171.27190177 -113.85094739 173.35677627 -113.8581543 175.44165039 C-113.85736122 176.88060669 -113.85736122 176.88060669 -113.85655212 178.34863281 C-113.8605603 179.21589493 -113.86456848 180.08315704 -113.86869812 180.97669983 C-113.87058403 182.11276971 -113.87058403 182.11276971 -113.87250805 183.2717905 C-114 185 -114 185 -115 186 C-116.46805292 186.09822744 -117.9407746 186.1279837 -119.41210938 186.12939453 C-120.34978149 186.13254669 -121.28745361 186.13569885 -122.25354004 186.13894653 C-123.27330933 186.1369223 -124.29307861 186.13489807 -125.34375 186.1328125 C-126.90289124 186.13424759 -126.90289124 186.13424759 -128.49353027 186.13571167 C-130.69604554 186.13639363 -132.89856279 186.13453827 -135.10107422 186.13037109 C-138.48539719 186.12502308 -141.86958744 186.13031559 -145.25390625 186.13671875 C-147.38802113 186.13605797 -149.52213592 186.13477681 -151.65625 186.1328125 C-152.67601929 186.13483673 -153.69578857 186.13686096 -154.74645996 186.13894653 C-156.15296814 186.13421829 -156.15296814 186.13421829 -157.58789062 186.12939453 C-158.41760376 186.12859894 -159.24731689 186.12780334 -160.10217285 186.12698364 C-162 186 -162 186 -163 185 C-163.09777019 182.43281803 -163.12995016 179.89256084 -163.12025452 177.32493591 C-163.12110894 176.51145457 -163.12196337 175.69797322 -163.12284368 174.85984093 C-163.12450097 172.11283759 -163.11897306 169.36589427 -163.11352539 166.61889648 C-163.11324355 164.65818279 -163.1134012 162.697469 -163.1139679 160.73675537 C-163.11425598 155.39606666 -163.10835752 150.05540019 -163.10139394 144.71471667 C-163.09516218 139.13997684 -163.09455674 133.56523655 -163.09336853 127.99049377 C-163.09025469 117.42593909 -163.08204059 106.86139469 -163.07201904 96.29684454 C-163.06085955 84.2728677 -163.05534787 72.24889039 -163.05032361 60.22490966 C-163.03985801 35.48326608 -163.02151188 10.74163661 -163 -14 C-148.81 -14 -134.62 -14 -120 -14 C-117.39303328 -0.39489241 -115.33176446 12.17123679 -116 26 C-115.01 26 -114.02 26 -113 26 C-112.979375 25.05125 -112.95875 24.1025 -112.9375 23.125 C-111.47284938 12.66017746 -100.24343174 2.72096679 -92.35913086 -3.30102539 C-65.25022044 -23.21188464 -26.20021128 -19.42366977 0 0 Z " fill="#F8F8F8" transform="translate(613,282)"/>
<path d="M0 0 C15.84 0 31.68 0 48 0 C48.06058594 4.95257813 48.12117187 9.90515625 48.18359375 15.0078125 C48.37411394 30.44394324 48.58234705 45.87978699 48.8004303 61.31555176 C48.92249109 70.00678185 49.03215103 78.69778911 49.11454773 87.38949585 C49.15704158 91.57379145 49.21408799 95.75778306 49.27590942 99.9418335 C49.29991406 101.78408431 49.31744832 103.6264332 49.32785034 105.46881104 C49.41511724 120.08167879 50.21644363 136.23799112 60 148 C69.205025 156.97924137 79.40056828 160.2889868 92.05517578 160.31689453 C103.09332543 160.10066959 113.02716704 155.84993516 120.8984375 148.140625 C136.87221661 129.58592962 135.14480541 102.92704916 135.31640625 80.078125 C135.33700927 77.76356666 135.35800654 75.44901181 135.37937927 73.13446045 C135.43425452 67.07819457 135.48381441 61.0218967 135.53222656 54.96557617 C135.59158809 47.67990668 135.65762369 40.39429493 135.72252655 33.1086731 C135.82010058 22.07248435 135.90925401 11.03625651 136 0 C152.17 0 168.34 0 185 0 C185.02254434 25.92910755 185.0409776 51.8582072 185.05181217 77.78732204 C185.05697581 89.82574755 185.06401979 101.86416656 185.07543945 113.90258789 C185.08538423 124.39117644 185.09185293 134.87976029 185.09408849 145.36835343 C185.09539595 150.92566864 185.09848402 156.48297038 185.10573006 162.0402813 C185.11248702 167.2645276 185.11461763 172.4887548 185.11310768 177.71300507 C185.11338416 179.63636694 185.11539119 181.55972942 185.11920547 183.48308754 C185.12413767 186.09706095 185.12300006 188.71096101 185.12025452 191.32493591 C185.12462378 192.48201472 185.12462378 192.48201472 185.12908131 193.66246885 C185.11412121 198.88587879 185.11412121 198.88587879 184 200 C180.97022196 200.08871273 177.96332978 200.1151935 174.93359375 200.09765625 C174.02497086 200.0962413 173.11634796 200.09482635 172.18019104 200.09336853 C169.26592779 200.08775193 166.35174019 200.07519665 163.4375 200.0625 C161.46679798 200.05748714 159.49609476 200.05292386 157.52539062 200.04882812 C152.68356441 200.03777711 147.84179505 200.02050138 143 200 C141.2781705 195.86840654 140.23492333 191.83120798 139.4375 187.4375 C139.24244873 186.3861084 139.24244873 186.3861084 139.04345703 185.31347656 C138.10173574 180.04223661 137.52467049 174.80152551 137.2109375 169.453125 C137.01674477 167.19473553 136.62007365 165.17534034 136 163 C135.34 163 134.68 163 134 163 C133.773125 163.825 133.54625 164.65 133.3125 165.5 C130.09430422 174.08185543 124.31017799 180.47591767 118 187 C117.38382813 187.64195312 116.76765625 188.28390625 116.1328125 188.9453125 C104.60758397 199.97589603 90.23398842 203.37394408 74.76953125 203.37060547 C72.53305367 203.374936 70.29862391 203.41119279 68.0625 203.44921875 C53.8532538 203.56079092 41.0857779 200.92145933 29 193 C28.14792969 192.44828125 27.29585937 191.8965625 26.41796875 191.328125 C9.74634472 179.34299436 4.02374241 158.40963905 0.48200989 139.18890381 C-0.32500076 133.43003763 -0.1303867 127.61494688 -0.11352539 121.81274414 C-0.11367142 120.49498993 -0.11381744 119.17723572 -0.1139679 117.81954956 C-0.11425373 114.22295755 -0.10839162 110.62639918 -0.10139394 107.02981496 C-0.09512475 103.26486842 -0.09455378 99.49992104 -0.09336853 95.73497009 C-0.09026571 88.61304479 -0.08206649 81.49113491 -0.07201904 74.36921638 C-0.06082528 66.25796505 -0.05533924 58.14671296 -0.05032361 50.03545582 C-0.03988298 33.3569601 -0.02155057 16.67848563 0 0 Z " fill="#FAFAFA" transform="translate(884,268)"/>
<path d="M0 0 C1.3921875 1.11375 1.3921875 1.11375 2.8125 2.25 C3.55757812 2.84167969 4.30265625 3.43335938 5.0703125 4.04296875 C21.86017831 18.1372139 29.31450313 37.92995935 31.8125 59.25 C32.43546217 68.86377456 32.29616014 78.50567346 32.21807575 88.13444805 C32.19267358 91.80853357 32.19069013 95.48263953 32.18597412 99.15679932 C32.1736562 106.08007914 32.14099024 113.00309929 32.10057616 119.92626595 C32.055505 127.82255223 32.03378359 135.71885244 32.01379442 143.61523581 C31.9722442 159.82699884 31.89903639 176.03840517 31.8125 192.25 C15.9725 192.25 0.1325 192.25 -16.1875 192.25 C-16.89168478 175.71897376 -17.28598013 159.23081591 -17.3984375 142.6875 C-17.41275518 140.76871665 -17.42718058 138.84993409 -17.44171143 136.93115234 C-17.50004419 129.02575238 -17.55579959 121.12039511 -17.58886719 113.21484375 C-17.60991115 108.30650659 -17.6452343 103.39844403 -17.68962479 98.49026489 C-17.70364179 96.64693428 -17.71247431 94.80355568 -17.71567917 92.96017456 C-17.74200497 79.31316227 -19.323995 67.7335458 -24.875 55.125 C-28.1875 47.47359155 -28.1875 47.47359155 -28.1875 45.25 C-28.8475 45.25 -29.5075 45.25 -30.1875 45.25 C-31.19314958 44.25568168 -32.19233083 43.25480761 -33.1875 42.25 C-35.01449707 41.11953094 -35.01449707 41.11953094 -37 40.1875 C-37.64582031 39.86652344 -38.29164062 39.54554688 -38.95703125 39.21484375 C-40.06111328 38.73724609 -40.06111328 38.73724609 -41.1875 38.25 C-42.00863281 37.88648438 -42.82976562 37.52296875 -43.67578125 37.1484375 C-48.95804076 35.79702517 -54.13245479 35.92167819 -59.5625 35.9375 C-60.66078125 35.92138672 -61.7590625 35.90527344 -62.890625 35.88867188 C-69.42879007 35.88475211 -74.23211258 36.54844995 -80.1875 39.25 C-81.01378906 39.54261719 -81.84007812 39.83523438 -82.69140625 40.13671875 C-88.66222196 42.45933207 -92.66048325 45.87549829 -96.1875 51.25 C-96.56643907 52.57109578 -96.90042103 53.90594846 -97.1875 55.25 C-97.80093554 56.65095415 -98.42723103 58.04631021 -99.0625 59.4375 C-102.04715809 66.73091904 -103.03882142 74.49706589 -104.1875 82.25 C-104.35497742 83.23890228 -104.52245483 84.22780457 -104.69500732 85.24667358 C-105.36698081 89.98912361 -105.36347587 94.71721759 -105.39282227 99.49975586 C-105.40272186 100.50539581 -105.41262146 101.51103577 -105.42282104 102.54714966 C-105.45427043 105.85302419 -105.4791277 109.15891306 -105.50390625 112.46484375 C-105.52449009 114.76412823 -105.54548693 117.06340905 -105.56687927 119.36268616 C-105.62195224 125.4009402 -105.67142646 131.43922755 -105.71972656 137.47753906 C-105.77890462 144.72971473 -105.84505099 151.98182979 -105.91002655 159.23395538 C-106.00785005 170.23926643 -106.09683339 181.24461718 -106.1875 192.25 C-122.0275 192.25 -137.8675 192.25 -154.1875 192.25 C-154.1875 126.25 -154.1875 60.25 -154.1875 -7.75 C-140.3275 -7.75 -126.4675 -7.75 -112.1875 -7.75 C-108.9478182 6.28862112 -106.83899234 18.07735507 -107.1875 32.25 C-106.1975 32.25 -105.2075 32.25 -104.1875 32.25 C-104.1875 31.156875 -104.1875 30.06375 -104.1875 28.9375 C-102.96886607 19.11879231 -93.35411276 10.35133177 -85.9140625 4.4453125 C-60.87337991 -13.95998417 -27.04115658 -14.84612518 0 0 Z " fill="#F9F9F9" transform="translate(1332.1875,275.75)"/>
<path d="M0 0 C15.84 0 31.68 0 48 0 C48 76.23 48 152.46 48 231 C92.22 231 136.44 231 182 231 C182 244.86 182 258.72 182 273 C121.94 273 61.88 273 0 273 C0 182.91 0 92.82 0 0 Z " fill="#FDFDFD" transform="translate(161,193)"/>
<path d="M0 0 C3.10523978 3.08510856 5.5738067 6.3664867 8 10 C8.47953125 10.63550781 8.9590625 11.27101563 9.453125 11.92578125 C20.21018378 27.05694526 19.96330755 51.47946015 17.5390625 69.171875 C14.57403232 83.47378529 7.05922004 95.88296425 -4.93359375 104.171875 C-12.69791406 108.80079463 -20.94326015 111.78158988 -30 112 C-31.06992187 112.05027344 -32.13984375 112.10054688 -33.2421875 112.15234375 C-46.99366464 112.52847825 -58.20907857 109.72852305 -68.75 100.625 C-69.4925 99.75875 -70.235 98.8925 -71 98 C-71.47953125 97.44957031 -71.9590625 96.89914062 -72.453125 96.33203125 C-83.5336533 82.7611822 -85.52471429 65.23853228 -85.375 48.3125 C-85.38573049 46.97590316 -85.39744709 45.63931387 -85.41015625 44.30273438 C-85.36122844 27.85483645 -80.27107273 14.16815811 -69 2 C-49.53363191 -15.74461351 -21.29591615 -15.17008952 0 0 Z " fill="#2A2D32" transform="translate(790,319)"/>
<path d="M0 0 C16.17 0 32.34 0 49 0 C49 66 49 132 49 200 C32.83 200 16.66 200 0 200 C0 134 0 68 0 0 Z " fill="#F6F7F7" transform="translate(1099,267)"/>
<path d="M0 0 C15.84 0 31.68 0 48 0 C48 65.34 48 130.68 48 198 C32.16 198 16.32 198 0 198 C0 132.66 0 67.32 0 0 Z " fill="#FDFDFD" transform="translate(371,268)"/>
<path d="M0 0 C5.9574474 5.67547165 11.01234213 12.4272335 11.2734375 20.82421875 C11.31334858 22.77853153 11.3469508 24.73298099 11.375 26.6875 C11.43107422 28.1405957 11.43107422 28.1405957 11.48828125 29.62304688 C11.58515987 37.58324055 9.49142831 42.16169113 4.19140625 47.98828125 C-5.11533673 55.55419461 -14.1894528 56.80634258 -26 56 C-34.49513231 54.62689691 -40.16978498 47.83021502 -46 42 C-48.23455338 36.86763359 -48.33410024 32.12010019 -48.3125 26.625 C-48.32861328 25.81289063 -48.34472656 25.00078125 -48.36132812 24.1640625 C-48.36683144 17.2959275 -47.30182866 11.73112176 -42.80078125 6.390625 C-29.81891487 -4.77744843 -15.74048148 -9.65544169 0 0 Z " fill="#F9F9F9" transform="translate(1626,412)"/>
<path d="M0 0 C5.89408768 4.89127415 10.65427792 10.5420716 12.0078125 18.24609375 C12.32247143 27.1509415 10.21213096 34.73759499 4.75 41.8125 C-1.18295865 48.16496078 -9.3826987 51.52038877 -17.9375 52.3125 C-26.03379064 51.61454391 -32.71293279 48.69596807 -38.5625 43 C-40.51372822 40.46086925 -42.08635224 37.83754198 -43.5625 35 C-44.09101563 34.06671875 -44.61953125 33.1334375 -45.1640625 32.171875 C-47.92956821 25.89927545 -47.86833448 18.53484133 -45.49609375 12.11328125 C-41.19098788 4.45324274 -33.93353183 -2.99767571 -25.375 -5.6875 C-15.41532923 -6.79413009 -8.27020748 -5.82546709 0 0 Z " fill="#F6F6F6" transform="translate(412.5625,191)"/>
<path d="M0 0 C5.98988118 3.54319474 9.78000076 9.10672114 11.859375 15.69140625 C12.84399045 26.99530306 11.95338425 36.89761258 4.65625 45.96484375 C-0.45330555 50.87446017 -7.23146923 52.37962124 -14.140625 52.69140625 C-15.01976562 52.75457031 -15.89890625 52.81773437 -16.8046875 52.8828125 C-24.76962303 53.22291305 -29.64411835 51.82102985 -35.59765625 46.4921875 C-43.25490867 39.00375639 -43.25490867 39.00375639 -43.33227539 32.07983398 C-43.29443552 11.44374938 -43.29443552 11.44374938 -39.28515625 6.3203125 C-37.01658401 4.19230583 -34.71774437 2.42897782 -32.140625 0.69140625 C-31.52058594 0.23765625 -30.90054687 -0.21609375 -30.26171875 -0.68359375 C-21.20146406 -6.31934613 -9.23973152 -3.95505581 0 0 Z " fill="#F8F8F8" transform="translate(1139.140625,189.30859375)"/>
<path d="M0 0 C4.83803846 -0.04975831 9.67592509 -0.08588788 14.51416016 -0.10986328 C16.15709023 -0.11986737 17.80000274 -0.13347494 19.44287109 -0.15087891 C21.81612505 -0.17537515 24.18914185 -0.18653917 26.5625 -0.1953125 C27.28679199 -0.20563507 28.01108398 -0.21595764 28.75732422 -0.22659302 C33.80716915 -0.2276826 38.14010767 0.61760937 43 2 C43 2.99 43 3.98 43 5 C27.49 5 11.98 5 -4 5 C-3.01 4.67 -2.02 4.34 -1 4 C-0.26676204 1.98491642 -0.26676204 1.98491642 0 0 Z " fill="#3E4044" transform="translate(814,263)"/>
<path d="M0 0 C1.32 0.66 2.64 1.32 4 2 C-3.81208054 11.31543624 -3.81208054 11.31543624 -7 14 C-9.1484375 13.625 -9.1484375 13.625 -11 13 C-5.03416856 3.40546697 -5.03416856 3.40546697 0 0 Z " fill="#35373B" transform="translate(517,318)"/>
<path d="M0 0 C0.99 0 1.98 0 3 0 C2.34 7.92 1.68 15.84 1 24 C-2.81805752 20.18194248 -2.16210935 15.63242619 -2.1875 10.4375 C-2.19974609 9.76525391 -2.21199219 9.09300781 -2.22460938 8.40039062 C-2.23562975 4.70121763 -2.10685378 3.16028067 0 0 Z " fill="#525357" transform="translate(1095,198)"/>
<path d="M0 0 C-1.50912958 4.98012761 -4.55661849 8.24259942 -8 12 C-9.32 11.67 -10.64 11.34 -12 11 C-11.06558465 9.72689688 -10.12732889 8.456612 -9.1875 7.1875 C-8.66542969 6.47980469 -8.14335938 5.77210938 -7.60546875 5.04296875 C-3.64244742 0 -3.64244742 0 0 0 Z " fill="#454649" transform="translate(1247,317)"/>
<path d="M0 0 C0.66 0 1.32 0 2 0 C4.60018816 3.90028225 4.15085514 7.47434569 4 12 C3.34 11.01 2.68 10.02 2 9 C-0.31 9.66 -2.62 10.32 -5 11 C-3.35 7.37 -1.7 3.74 0 0 Z " fill="#3C3D40" transform="translate(1018,431)"/>
<path d="M0 0 C2.31 0.33 4.62 0.66 7 1 C6.25 8.75 6.25 8.75 4 11 C1.17438373 7.20307814 -0.56638908 4.81430721 0 0 Z " fill="#444547" transform="translate(1466,398)"/>
</svg>
